<mxfile host="app.diagrams.net" agent="Mozilla/5.0 (Windows NT 10.0; Win64; x64) AppleWebKit/537.36 (KHTML, like Gecko) Chrome/130.0.0.0 Safari/537.36" version="24.8.6">
  <diagram name="Page-1" id="XfyR6ljDPPWZCooTb3Pp">
    <mxGraphModel dx="2261" dy="1907" grid="1" gridSize="10" guides="1" tooltips="1" connect="1" arrows="1" fold="1" page="1" pageScale="1" pageWidth="827" pageHeight="1169" math="0" shadow="0">
      <root>
        <mxCell id="0" />
        <mxCell id="1" parent="0" />
        <mxCell id="qq-jrD-yqYWrXCZJZRmo-111" value="" style="rounded=1;whiteSpace=wrap;html=1;fillColor=none;" vertex="1" parent="1">
          <mxGeometry x="960" y="-30" width="450" height="630" as="geometry" />
        </mxCell>
        <mxCell id="qq-jrD-yqYWrXCZJZRmo-108" value="" style="rounded=1;whiteSpace=wrap;html=1;fillColor=none;" vertex="1" parent="1">
          <mxGeometry x="1000" y="-220" width="230" height="160" as="geometry" />
        </mxCell>
        <mxCell id="qq-jrD-yqYWrXCZJZRmo-107" value="" style="rounded=1;whiteSpace=wrap;html=1;fillColor=none;" vertex="1" parent="1">
          <mxGeometry x="250" y="380" width="650" height="760" as="geometry" />
        </mxCell>
        <mxCell id="qq-jrD-yqYWrXCZJZRmo-106" value="" style="rounded=1;whiteSpace=wrap;html=1;fillColor=none;" vertex="1" parent="1">
          <mxGeometry x="240" y="-240" width="480" height="410" as="geometry" />
        </mxCell>
        <mxCell id="qq-jrD-yqYWrXCZJZRmo-105" value="" style="rounded=1;whiteSpace=wrap;html=1;fillColor=none;" vertex="1" parent="1">
          <mxGeometry x="-95" y="-60" width="300" height="210" as="geometry" />
        </mxCell>
        <mxCell id="qq-jrD-yqYWrXCZJZRmo-104" value="" style="rounded=1;whiteSpace=wrap;html=1;fillColor=none;" vertex="1" parent="1">
          <mxGeometry x="-473" y="-260" width="303" height="260" as="geometry" />
        </mxCell>
        <mxCell id="qq-jrD-yqYWrXCZJZRmo-103" value="" style="rounded=1;whiteSpace=wrap;html=1;fillColor=none;" vertex="1" parent="1">
          <mxGeometry x="-760" y="180" width="900" height="960" as="geometry" />
        </mxCell>
        <mxCell id="qq-jrD-yqYWrXCZJZRmo-1" value="" style="sketch=0;points=[[0.5,0,0],[1,0.5,0],[0.5,1,0],[0,0.5,0],[0.145,0.145,0],[0.8555,0.145,0],[0.855,0.8555,0],[0.145,0.855,0]];verticalLabelPosition=bottom;html=1;verticalAlign=top;aspect=fixed;align=center;pointerEvents=1;shape=mxgraph.cisco19.rect;prIcon=router;fillColor=#FAFAFA;strokeColor=#005073;" vertex="1" parent="1">
          <mxGeometry x="-490" y="450" width="50" height="50" as="geometry" />
        </mxCell>
        <mxCell id="qq-jrD-yqYWrXCZJZRmo-2" value="" style="sketch=0;points=[[0.5,0,0],[1,0.5,0],[0.5,1,0],[0,0.5,0],[0.145,0.145,0],[0.8555,0.145,0],[0.855,0.8555,0],[0.145,0.855,0]];verticalLabelPosition=bottom;html=1;verticalAlign=top;aspect=fixed;align=center;pointerEvents=1;shape=mxgraph.cisco19.rect;prIcon=router;fillColor=#FAFAFA;strokeColor=#005073;" vertex="1" parent="1">
          <mxGeometry x="-220" y="450" width="50" height="50" as="geometry" />
        </mxCell>
        <mxCell id="qq-jrD-yqYWrXCZJZRmo-3" value="" style="sketch=0;points=[[0.5,0,0],[1,0.5,0],[0.5,1,0],[0,0.5,0],[0.145,0.145,0],[0.8555,0.145,0],[0.855,0.8555,0],[0.145,0.855,0]];verticalLabelPosition=bottom;html=1;verticalAlign=top;aspect=fixed;align=center;pointerEvents=1;shape=mxgraph.cisco19.rect;prIcon=router;fillColor=#FAFAFA;strokeColor=#005073;" vertex="1" parent="1">
          <mxGeometry x="-490" y="230" width="50" height="50" as="geometry" />
        </mxCell>
        <mxCell id="qq-jrD-yqYWrXCZJZRmo-4" value="" style="sketch=0;points=[[0.5,0,0],[1,0.5,0],[0.5,1,0],[0,0.5,0],[0.145,0.145,0],[0.8555,0.145,0],[0.855,0.8555,0],[0.145,0.855,0]];verticalLabelPosition=bottom;html=1;verticalAlign=top;aspect=fixed;align=center;pointerEvents=1;shape=mxgraph.cisco19.rect;prIcon=router;fillColor=#FAFAFA;strokeColor=#005073;" vertex="1" parent="1">
          <mxGeometry x="-220" y="240" width="50" height="50" as="geometry" />
        </mxCell>
        <mxCell id="qq-jrD-yqYWrXCZJZRmo-7" style="rounded=0;orthogonalLoop=1;jettySize=auto;html=1;exitX=0.8555;exitY=0.145;exitDx=0;exitDy=0;exitPerimeter=0;entryX=0.145;entryY=0.855;entryDx=0;entryDy=0;entryPerimeter=0;endArrow=none;endFill=0;" edge="1" parent="1" source="qq-jrD-yqYWrXCZJZRmo-1" target="qq-jrD-yqYWrXCZJZRmo-4">
          <mxGeometry relative="1" as="geometry" />
        </mxCell>
        <mxCell id="qq-jrD-yqYWrXCZJZRmo-8" style="rounded=0;orthogonalLoop=1;jettySize=auto;html=1;exitX=0.145;exitY=0.145;exitDx=0;exitDy=0;exitPerimeter=0;entryX=0.855;entryY=0.8555;entryDx=0;entryDy=0;entryPerimeter=0;endArrow=none;endFill=0;" edge="1" parent="1" source="qq-jrD-yqYWrXCZJZRmo-2" target="qq-jrD-yqYWrXCZJZRmo-3">
          <mxGeometry relative="1" as="geometry" />
        </mxCell>
        <mxCell id="qq-jrD-yqYWrXCZJZRmo-9" value="" style="sketch=0;points=[[0.015,0.015,0],[0.985,0.015,0],[0.985,0.985,0],[0.015,0.985,0],[0.25,0,0],[0.5,0,0],[0.75,0,0],[1,0.25,0],[1,0.5,0],[1,0.75,0],[0.75,1,0],[0.5,1,0],[0.25,1,0],[0,0.75,0],[0,0.5,0],[0,0.25,0]];verticalLabelPosition=bottom;html=1;verticalAlign=top;aspect=fixed;align=center;pointerEvents=1;shape=mxgraph.cisco19.rect;prIcon=l2_switch;fillColor=#FAFAFA;strokeColor=#005073;" vertex="1" parent="1">
          <mxGeometry x="-490" y="615" width="50" height="50" as="geometry" />
        </mxCell>
        <mxCell id="qq-jrD-yqYWrXCZJZRmo-10" value="" style="sketch=0;points=[[0.015,0.015,0],[0.985,0.015,0],[0.985,0.985,0],[0.015,0.985,0],[0.25,0,0],[0.5,0,0],[0.75,0,0],[1,0.25,0],[1,0.5,0],[1,0.75,0],[0.75,1,0],[0.5,1,0],[0.25,1,0],[0,0.75,0],[0,0.5,0],[0,0.25,0]];verticalLabelPosition=bottom;html=1;verticalAlign=top;aspect=fixed;align=center;pointerEvents=1;shape=mxgraph.cisco19.rect;prIcon=l2_switch;fillColor=#FAFAFA;strokeColor=#005073;" vertex="1" parent="1">
          <mxGeometry x="-220" y="615" width="50" height="50" as="geometry" />
        </mxCell>
        <mxCell id="qq-jrD-yqYWrXCZJZRmo-11" style="rounded=0;orthogonalLoop=1;jettySize=auto;html=1;exitX=0.5;exitY=0;exitDx=0;exitDy=0;exitPerimeter=0;entryX=0.5;entryY=1;entryDx=0;entryDy=0;entryPerimeter=0;endArrow=none;endFill=0;" edge="1" parent="1" source="qq-jrD-yqYWrXCZJZRmo-9" target="qq-jrD-yqYWrXCZJZRmo-1">
          <mxGeometry relative="1" as="geometry" />
        </mxCell>
        <mxCell id="qq-jrD-yqYWrXCZJZRmo-13" style="rounded=0;orthogonalLoop=1;jettySize=auto;html=1;exitX=0.5;exitY=0;exitDx=0;exitDy=0;exitPerimeter=0;entryX=0.5;entryY=1;entryDx=0;entryDy=0;entryPerimeter=0;endArrow=none;endFill=0;" edge="1" parent="1" source="qq-jrD-yqYWrXCZJZRmo-10" target="qq-jrD-yqYWrXCZJZRmo-2">
          <mxGeometry relative="1" as="geometry" />
        </mxCell>
        <mxCell id="qq-jrD-yqYWrXCZJZRmo-14" style="rounded=0;orthogonalLoop=1;jettySize=auto;html=1;exitX=0.5;exitY=0;exitDx=0;exitDy=0;exitPerimeter=0;entryX=0.5;entryY=1;entryDx=0;entryDy=0;entryPerimeter=0;endArrow=none;endFill=0;" edge="1" parent="1" source="qq-jrD-yqYWrXCZJZRmo-1" target="qq-jrD-yqYWrXCZJZRmo-3">
          <mxGeometry relative="1" as="geometry" />
        </mxCell>
        <mxCell id="qq-jrD-yqYWrXCZJZRmo-15" style="edgeStyle=orthogonalEdgeStyle;rounded=0;orthogonalLoop=1;jettySize=auto;html=1;exitX=0.5;exitY=0;exitDx=0;exitDy=0;exitPerimeter=0;entryX=0.5;entryY=1;entryDx=0;entryDy=0;entryPerimeter=0;endArrow=none;endFill=0;" edge="1" parent="1" source="qq-jrD-yqYWrXCZJZRmo-2" target="qq-jrD-yqYWrXCZJZRmo-4">
          <mxGeometry relative="1" as="geometry" />
        </mxCell>
        <mxCell id="qq-jrD-yqYWrXCZJZRmo-16" value="" style="sketch=0;points=[[0.5,0,0],[1,0.5,0],[0.5,1,0],[0,0.5,0],[0.145,0.145,0],[0.8555,0.145,0],[0.855,0.8555,0],[0.145,0.855,0]];verticalLabelPosition=bottom;html=1;verticalAlign=top;aspect=fixed;align=center;pointerEvents=1;shape=mxgraph.cisco19.rect;prIcon=router;fillColor=#FAFAFA;strokeColor=#005073;" vertex="1" parent="1">
          <mxGeometry x="-700" y="450" width="50" height="50" as="geometry" />
        </mxCell>
        <mxCell id="qq-jrD-yqYWrXCZJZRmo-17" style="rounded=0;orthogonalLoop=1;jettySize=auto;html=1;exitX=0.8555;exitY=0.145;exitDx=0;exitDy=0;exitPerimeter=0;endArrow=none;endFill=0;entryX=0.145;entryY=0.855;entryDx=0;entryDy=0;entryPerimeter=0;" edge="1" parent="1" source="qq-jrD-yqYWrXCZJZRmo-16" target="qq-jrD-yqYWrXCZJZRmo-3">
          <mxGeometry relative="1" as="geometry">
            <mxPoint x="-490" y="280" as="targetPoint" />
          </mxGeometry>
        </mxCell>
        <mxCell id="qq-jrD-yqYWrXCZJZRmo-18" value="" style="sketch=0;points=[[0.5,0,0],[1,0.5,0],[0.5,1,0],[0,0.5,0],[0.145,0.145,0],[0.8555,0.145,0],[0.855,0.8555,0],[0.145,0.855,0]];verticalLabelPosition=bottom;html=1;verticalAlign=top;aspect=fixed;align=center;pointerEvents=1;shape=mxgraph.cisco19.rect;prIcon=router;fillColor=#FAFAFA;strokeColor=#005073;" vertex="1" parent="1">
          <mxGeometry x="10" y="440" width="50" height="50" as="geometry" />
        </mxCell>
        <mxCell id="qq-jrD-yqYWrXCZJZRmo-19" style="rounded=0;orthogonalLoop=1;jettySize=auto;html=1;exitX=0.145;exitY=0.145;exitDx=0;exitDy=0;exitPerimeter=0;entryX=0.855;entryY=0.8555;entryDx=0;entryDy=0;entryPerimeter=0;endArrow=none;endFill=0;" edge="1" parent="1" source="qq-jrD-yqYWrXCZJZRmo-18" target="qq-jrD-yqYWrXCZJZRmo-4">
          <mxGeometry relative="1" as="geometry" />
        </mxCell>
        <mxCell id="qq-jrD-yqYWrXCZJZRmo-20" style="edgeStyle=orthogonalEdgeStyle;rounded=0;orthogonalLoop=1;jettySize=auto;html=1;exitX=1;exitY=0.25;exitDx=0;exitDy=0;exitPerimeter=0;entryX=0;entryY=0.25;entryDx=0;entryDy=0;entryPerimeter=0;endArrow=none;endFill=0;" edge="1" parent="1" source="qq-jrD-yqYWrXCZJZRmo-9" target="qq-jrD-yqYWrXCZJZRmo-10">
          <mxGeometry relative="1" as="geometry" />
        </mxCell>
        <mxCell id="qq-jrD-yqYWrXCZJZRmo-21" style="edgeStyle=orthogonalEdgeStyle;rounded=0;orthogonalLoop=1;jettySize=auto;html=1;exitX=1;exitY=0.75;exitDx=0;exitDy=0;exitPerimeter=0;entryX=0;entryY=0.75;entryDx=0;entryDy=0;entryPerimeter=0;endArrow=none;endFill=0;" edge="1" parent="1" source="qq-jrD-yqYWrXCZJZRmo-9" target="qq-jrD-yqYWrXCZJZRmo-10">
          <mxGeometry relative="1" as="geometry" />
        </mxCell>
        <mxCell id="qq-jrD-yqYWrXCZJZRmo-23" value="" style="sketch=0;points=[[0.015,0.015,0],[0.985,0.015,0],[0.985,0.985,0],[0.015,0.985,0],[0.25,0,0],[0.5,0,0],[0.75,0,0],[1,0.25,0],[1,0.5,0],[1,0.75,0],[0.75,1,0],[0.5,1,0],[0.25,1,0],[0,0.75,0],[0,0.5,0],[0,0.25,0]];verticalLabelPosition=bottom;html=1;verticalAlign=top;aspect=fixed;align=center;pointerEvents=1;shape=mxgraph.cisco19.rect;prIcon=l2_switch;fillColor=#FAFAFA;strokeColor=#005073;" vertex="1" parent="1">
          <mxGeometry x="-490" y="780" width="50" height="50" as="geometry" />
        </mxCell>
        <mxCell id="qq-jrD-yqYWrXCZJZRmo-24" value="" style="sketch=0;points=[[0.015,0.015,0],[0.985,0.015,0],[0.985,0.985,0],[0.015,0.985,0],[0.25,0,0],[0.5,0,0],[0.75,0,0],[1,0.25,0],[1,0.5,0],[1,0.75,0],[0.75,1,0],[0.5,1,0],[0.25,1,0],[0,0.75,0],[0,0.5,0],[0,0.25,0]];verticalLabelPosition=bottom;html=1;verticalAlign=top;aspect=fixed;align=center;pointerEvents=1;shape=mxgraph.cisco19.rect;prIcon=l2_switch;fillColor=#FAFAFA;strokeColor=#005073;" vertex="1" parent="1">
          <mxGeometry x="-220" y="780" width="50" height="50" as="geometry" />
        </mxCell>
        <mxCell id="qq-jrD-yqYWrXCZJZRmo-27" style="edgeStyle=orthogonalEdgeStyle;rounded=0;orthogonalLoop=1;jettySize=auto;html=1;exitX=0.5;exitY=0;exitDx=0;exitDy=0;exitPerimeter=0;entryX=0.5;entryY=1;entryDx=0;entryDy=0;entryPerimeter=0;endArrow=none;endFill=0;" edge="1" parent="1" source="qq-jrD-yqYWrXCZJZRmo-24" target="qq-jrD-yqYWrXCZJZRmo-10">
          <mxGeometry relative="1" as="geometry" />
        </mxCell>
        <mxCell id="qq-jrD-yqYWrXCZJZRmo-29" style="edgeStyle=orthogonalEdgeStyle;rounded=0;orthogonalLoop=1;jettySize=auto;html=1;exitX=0.5;exitY=0;exitDx=0;exitDy=0;exitPerimeter=0;entryX=0.5;entryY=1;entryDx=0;entryDy=0;entryPerimeter=0;endArrow=none;endFill=0;" edge="1" parent="1" source="qq-jrD-yqYWrXCZJZRmo-23" target="qq-jrD-yqYWrXCZJZRmo-9">
          <mxGeometry relative="1" as="geometry" />
        </mxCell>
        <mxCell id="qq-jrD-yqYWrXCZJZRmo-30" style="rounded=0;orthogonalLoop=1;jettySize=auto;html=1;exitX=0.985;exitY=0.015;exitDx=0;exitDy=0;exitPerimeter=0;entryX=0.145;entryY=0.855;entryDx=0;entryDy=0;entryPerimeter=0;endArrow=none;endFill=0;" edge="1" parent="1" source="qq-jrD-yqYWrXCZJZRmo-9" target="qq-jrD-yqYWrXCZJZRmo-2">
          <mxGeometry relative="1" as="geometry" />
        </mxCell>
        <mxCell id="qq-jrD-yqYWrXCZJZRmo-31" style="rounded=0;orthogonalLoop=1;jettySize=auto;html=1;exitX=0.015;exitY=0.015;exitDx=0;exitDy=0;exitPerimeter=0;entryX=0.855;entryY=0.8555;entryDx=0;entryDy=0;entryPerimeter=0;endArrow=none;endFill=0;" edge="1" parent="1" source="qq-jrD-yqYWrXCZJZRmo-10" target="qq-jrD-yqYWrXCZJZRmo-1">
          <mxGeometry relative="1" as="geometry" />
        </mxCell>
        <mxCell id="qq-jrD-yqYWrXCZJZRmo-32" style="rounded=0;orthogonalLoop=1;jettySize=auto;html=1;exitX=1;exitY=0.5;exitDx=0;exitDy=0;exitPerimeter=0;entryX=0.015;entryY=0.985;entryDx=0;entryDy=0;entryPerimeter=0;endArrow=none;endFill=0;" edge="1" parent="1" source="qq-jrD-yqYWrXCZJZRmo-23" target="qq-jrD-yqYWrXCZJZRmo-10">
          <mxGeometry relative="1" as="geometry" />
        </mxCell>
        <mxCell id="qq-jrD-yqYWrXCZJZRmo-33" style="rounded=0;orthogonalLoop=1;jettySize=auto;html=1;exitX=0;exitY=0.5;exitDx=0;exitDy=0;exitPerimeter=0;entryX=0.985;entryY=0.985;entryDx=0;entryDy=0;entryPerimeter=0;endArrow=none;endFill=0;" edge="1" parent="1" source="qq-jrD-yqYWrXCZJZRmo-24" target="qq-jrD-yqYWrXCZJZRmo-9">
          <mxGeometry relative="1" as="geometry" />
        </mxCell>
        <mxCell id="qq-jrD-yqYWrXCZJZRmo-34" value="" style="shape=mxgraph.cisco.computers_and_peripherals.workstation;sketch=0;html=1;pointerEvents=1;dashed=0;fillColor=#036897;strokeColor=#ffffff;strokeWidth=2;verticalLabelPosition=bottom;verticalAlign=top;align=center;outlineConnect=0;" vertex="1" parent="1">
          <mxGeometry x="-506.5" y="950" width="83" height="62" as="geometry" />
        </mxCell>
        <mxCell id="qq-jrD-yqYWrXCZJZRmo-35" style="rounded=0;orthogonalLoop=1;jettySize=auto;html=1;exitX=0.5;exitY=0;exitDx=0;exitDy=0;exitPerimeter=0;entryX=0.5;entryY=1;entryDx=0;entryDy=0;entryPerimeter=0;endArrow=none;endFill=0;" edge="1" parent="1" source="qq-jrD-yqYWrXCZJZRmo-34" target="qq-jrD-yqYWrXCZJZRmo-23">
          <mxGeometry relative="1" as="geometry" />
        </mxCell>
        <mxCell id="qq-jrD-yqYWrXCZJZRmo-36" value="" style="shape=mxgraph.cisco.computers_and_peripherals.workstation;sketch=0;html=1;pointerEvents=1;dashed=0;fillColor=#036897;strokeColor=#ffffff;strokeWidth=2;verticalLabelPosition=bottom;verticalAlign=top;align=center;outlineConnect=0;" vertex="1" parent="1">
          <mxGeometry x="-236.5" y="940" width="83" height="62" as="geometry" />
        </mxCell>
        <mxCell id="qq-jrD-yqYWrXCZJZRmo-37" style="edgeStyle=orthogonalEdgeStyle;rounded=0;orthogonalLoop=1;jettySize=auto;html=1;exitX=0.5;exitY=0;exitDx=0;exitDy=0;exitPerimeter=0;entryX=0.5;entryY=1;entryDx=0;entryDy=0;entryPerimeter=0;endArrow=none;endFill=0;" edge="1" parent="1" source="qq-jrD-yqYWrXCZJZRmo-36" target="qq-jrD-yqYWrXCZJZRmo-24">
          <mxGeometry relative="1" as="geometry" />
        </mxCell>
        <mxCell id="qq-jrD-yqYWrXCZJZRmo-38" value="" style="sketch=0;points=[[0.5,0,0],[1,0.5,0],[0.5,1,0],[0,0.5,0],[0.145,0.145,0],[0.8555,0.145,0],[0.855,0.8555,0],[0.145,0.855,0]];verticalLabelPosition=bottom;html=1;verticalAlign=top;aspect=fixed;align=center;pointerEvents=1;shape=mxgraph.cisco19.rect;prIcon=router;fillColor=#FAFAFA;strokeColor=#005073;" vertex="1" parent="1">
          <mxGeometry x="-340" y="-160" width="50" height="50" as="geometry" />
        </mxCell>
        <mxCell id="qq-jrD-yqYWrXCZJZRmo-39" value="" style="sketch=0;points=[[0.5,0,0],[1,0.5,0],[0.5,1,0],[0,0.5,0],[0.145,0.145,0],[0.8555,0.145,0],[0.855,0.8555,0],[0.145,0.855,0]];verticalLabelPosition=bottom;html=1;verticalAlign=top;aspect=fixed;align=center;pointerEvents=1;shape=mxgraph.cisco19.rect;prIcon=router;fillColor=#FAFAFA;strokeColor=#005073;" vertex="1" parent="1">
          <mxGeometry x="30" y="20" width="50" height="50" as="geometry" />
        </mxCell>
        <mxCell id="qq-jrD-yqYWrXCZJZRmo-40" style="rounded=0;orthogonalLoop=1;jettySize=auto;html=1;exitX=0.5;exitY=0;exitDx=0;exitDy=0;exitPerimeter=0;entryX=0.145;entryY=0.855;entryDx=0;entryDy=0;entryPerimeter=0;endArrow=none;endFill=0;" edge="1" parent="1" source="qq-jrD-yqYWrXCZJZRmo-3" target="qq-jrD-yqYWrXCZJZRmo-38">
          <mxGeometry relative="1" as="geometry" />
        </mxCell>
        <mxCell id="qq-jrD-yqYWrXCZJZRmo-41" style="rounded=0;orthogonalLoop=1;jettySize=auto;html=1;exitX=0.8555;exitY=0.145;exitDx=0;exitDy=0;exitPerimeter=0;entryX=0.145;entryY=0.855;entryDx=0;entryDy=0;entryPerimeter=0;endArrow=none;endFill=0;" edge="1" parent="1" source="qq-jrD-yqYWrXCZJZRmo-4" target="qq-jrD-yqYWrXCZJZRmo-39">
          <mxGeometry relative="1" as="geometry" />
        </mxCell>
        <mxCell id="qq-jrD-yqYWrXCZJZRmo-42" style="rounded=0;orthogonalLoop=1;jettySize=auto;html=1;exitX=0.855;exitY=0.8555;exitDx=0;exitDy=0;exitPerimeter=0;entryX=0;entryY=0.5;entryDx=0;entryDy=0;entryPerimeter=0;endArrow=none;endFill=0;" edge="1" parent="1" source="qq-jrD-yqYWrXCZJZRmo-38" target="qq-jrD-yqYWrXCZJZRmo-39">
          <mxGeometry relative="1" as="geometry" />
        </mxCell>
        <mxCell id="qq-jrD-yqYWrXCZJZRmo-43" value="" style="sketch=0;points=[[0.5,0,0],[1,0.5,0],[0.5,1,0],[0,0.5,0],[0.145,0.145,0],[0.8555,0.145,0],[0.855,0.8555,0],[0.145,0.855,0]];verticalLabelPosition=bottom;html=1;verticalAlign=top;aspect=fixed;align=center;pointerEvents=1;shape=mxgraph.cisco19.rect;prIcon=router;fillColor=#FAFAFA;strokeColor=#005073;" vertex="1" parent="1">
          <mxGeometry x="300" y="-160" width="50" height="50" as="geometry" />
        </mxCell>
        <mxCell id="qq-jrD-yqYWrXCZJZRmo-44" value="" style="sketch=0;points=[[0.5,0,0],[1,0.5,0],[0.5,1,0],[0,0.5,0],[0.145,0.145,0],[0.8555,0.145,0],[0.855,0.8555,0],[0.145,0.855,0]];verticalLabelPosition=bottom;html=1;verticalAlign=top;aspect=fixed;align=center;pointerEvents=1;shape=mxgraph.cisco19.rect;prIcon=router;fillColor=#FAFAFA;strokeColor=#005073;" vertex="1" parent="1">
          <mxGeometry x="600" y="-160" width="50" height="50" as="geometry" />
        </mxCell>
        <mxCell id="qq-jrD-yqYWrXCZJZRmo-45" value="" style="sketch=0;points=[[0.5,0,0],[1,0.5,0],[0.5,1,0],[0,0.5,0],[0.145,0.145,0],[0.8555,0.145,0],[0.855,0.8555,0],[0.145,0.855,0]];verticalLabelPosition=bottom;html=1;verticalAlign=top;aspect=fixed;align=center;pointerEvents=1;shape=mxgraph.cisco19.rect;prIcon=router;fillColor=#FAFAFA;strokeColor=#005073;" vertex="1" parent="1">
          <mxGeometry x="300" y="20" width="50" height="50" as="geometry" />
        </mxCell>
        <mxCell id="qq-jrD-yqYWrXCZJZRmo-46" value="" style="sketch=0;points=[[0.5,0,0],[1,0.5,0],[0.5,1,0],[0,0.5,0],[0.145,0.145,0],[0.8555,0.145,0],[0.855,0.8555,0],[0.145,0.855,0]];verticalLabelPosition=bottom;html=1;verticalAlign=top;aspect=fixed;align=center;pointerEvents=1;shape=mxgraph.cisco19.rect;prIcon=router;fillColor=#FAFAFA;strokeColor=#005073;" vertex="1" parent="1">
          <mxGeometry x="600" y="20" width="50" height="50" as="geometry" />
        </mxCell>
        <mxCell id="qq-jrD-yqYWrXCZJZRmo-47" style="rounded=0;orthogonalLoop=1;jettySize=auto;html=1;exitX=1;exitY=0.5;exitDx=0;exitDy=0;exitPerimeter=0;entryX=0;entryY=0.5;entryDx=0;entryDy=0;entryPerimeter=0;endArrow=none;endFill=0;" edge="1" parent="1" source="qq-jrD-yqYWrXCZJZRmo-38" target="qq-jrD-yqYWrXCZJZRmo-43">
          <mxGeometry relative="1" as="geometry" />
        </mxCell>
        <mxCell id="qq-jrD-yqYWrXCZJZRmo-48" style="rounded=0;orthogonalLoop=1;jettySize=auto;html=1;exitX=1;exitY=0.5;exitDx=0;exitDy=0;exitPerimeter=0;entryX=0;entryY=0.5;entryDx=0;entryDy=0;entryPerimeter=0;endArrow=none;endFill=0;" edge="1" parent="1" source="qq-jrD-yqYWrXCZJZRmo-39" target="qq-jrD-yqYWrXCZJZRmo-45">
          <mxGeometry relative="1" as="geometry" />
        </mxCell>
        <mxCell id="qq-jrD-yqYWrXCZJZRmo-49" style="rounded=0;orthogonalLoop=1;jettySize=auto;html=1;exitX=1;exitY=0.5;exitDx=0;exitDy=0;exitPerimeter=0;entryX=0;entryY=0.5;entryDx=0;entryDy=0;entryPerimeter=0;endArrow=none;endFill=0;" edge="1" parent="1" source="qq-jrD-yqYWrXCZJZRmo-43" target="qq-jrD-yqYWrXCZJZRmo-44">
          <mxGeometry relative="1" as="geometry" />
        </mxCell>
        <mxCell id="qq-jrD-yqYWrXCZJZRmo-50" style="edgeStyle=orthogonalEdgeStyle;rounded=0;orthogonalLoop=1;jettySize=auto;html=1;exitX=0.5;exitY=0;exitDx=0;exitDy=0;exitPerimeter=0;entryX=0.5;entryY=1;entryDx=0;entryDy=0;entryPerimeter=0;endArrow=none;endFill=0;" edge="1" parent="1" source="qq-jrD-yqYWrXCZJZRmo-45" target="qq-jrD-yqYWrXCZJZRmo-43">
          <mxGeometry relative="1" as="geometry" />
        </mxCell>
        <mxCell id="qq-jrD-yqYWrXCZJZRmo-51" style="edgeStyle=orthogonalEdgeStyle;rounded=0;orthogonalLoop=1;jettySize=auto;html=1;exitX=1;exitY=0.5;exitDx=0;exitDy=0;exitPerimeter=0;entryX=0;entryY=0.5;entryDx=0;entryDy=0;entryPerimeter=0;endArrow=none;endFill=0;" edge="1" parent="1" source="qq-jrD-yqYWrXCZJZRmo-45" target="qq-jrD-yqYWrXCZJZRmo-46">
          <mxGeometry relative="1" as="geometry" />
        </mxCell>
        <mxCell id="qq-jrD-yqYWrXCZJZRmo-52" style="edgeStyle=orthogonalEdgeStyle;rounded=0;orthogonalLoop=1;jettySize=auto;html=1;exitX=0.5;exitY=0;exitDx=0;exitDy=0;exitPerimeter=0;entryX=0.5;entryY=1;entryDx=0;entryDy=0;entryPerimeter=0;endArrow=none;endFill=0;" edge="1" parent="1" source="qq-jrD-yqYWrXCZJZRmo-46" target="qq-jrD-yqYWrXCZJZRmo-44">
          <mxGeometry relative="1" as="geometry" />
        </mxCell>
        <mxCell id="qq-jrD-yqYWrXCZJZRmo-53" value="" style="sketch=0;points=[[0.5,0,0],[1,0.5,0],[0.5,1,0],[0,0.5,0],[0.145,0.145,0],[0.8555,0.145,0],[0.855,0.8555,0],[0.145,0.855,0]];verticalLabelPosition=bottom;html=1;verticalAlign=top;aspect=fixed;align=center;pointerEvents=1;shape=mxgraph.cisco19.rect;prIcon=router;fillColor=#FAFAFA;strokeColor=#005073;" vertex="1" parent="1">
          <mxGeometry x="1070" y="-160" width="50" height="50" as="geometry" />
        </mxCell>
        <mxCell id="qq-jrD-yqYWrXCZJZRmo-54" value="" style="sketch=0;points=[[0.5,0,0],[1,0.5,0],[0.5,1,0],[0,0.5,0],[0.145,0.145,0],[0.8555,0.145,0],[0.855,0.8555,0],[0.145,0.855,0]];verticalLabelPosition=bottom;html=1;verticalAlign=top;aspect=fixed;align=center;pointerEvents=1;shape=mxgraph.cisco19.rect;prIcon=router;fillColor=#FAFAFA;strokeColor=#005073;" vertex="1" parent="1">
          <mxGeometry x="1070" y="20" width="50" height="50" as="geometry" />
        </mxCell>
        <mxCell id="qq-jrD-yqYWrXCZJZRmo-55" style="edgeStyle=orthogonalEdgeStyle;rounded=0;orthogonalLoop=1;jettySize=auto;html=1;exitX=1;exitY=0.5;exitDx=0;exitDy=0;exitPerimeter=0;entryX=0;entryY=0.5;entryDx=0;entryDy=0;entryPerimeter=0;endArrow=none;endFill=0;" edge="1" parent="1" source="qq-jrD-yqYWrXCZJZRmo-44" target="qq-jrD-yqYWrXCZJZRmo-53">
          <mxGeometry relative="1" as="geometry" />
        </mxCell>
        <mxCell id="qq-jrD-yqYWrXCZJZRmo-57" style="rounded=0;orthogonalLoop=1;jettySize=auto;html=1;exitX=0.855;exitY=0.8555;exitDx=0;exitDy=0;exitPerimeter=0;entryX=0.145;entryY=0.145;entryDx=0;entryDy=0;entryPerimeter=0;endArrow=none;endFill=0;" edge="1" parent="1" source="qq-jrD-yqYWrXCZJZRmo-44" target="qq-jrD-yqYWrXCZJZRmo-54">
          <mxGeometry relative="1" as="geometry" />
        </mxCell>
        <mxCell id="qq-jrD-yqYWrXCZJZRmo-58" style="edgeStyle=orthogonalEdgeStyle;rounded=0;orthogonalLoop=1;jettySize=auto;html=1;exitX=1;exitY=0.5;exitDx=0;exitDy=0;exitPerimeter=0;entryX=0;entryY=0.5;entryDx=0;entryDy=0;entryPerimeter=0;endArrow=none;endFill=0;" edge="1" parent="1" source="qq-jrD-yqYWrXCZJZRmo-46" target="qq-jrD-yqYWrXCZJZRmo-54">
          <mxGeometry relative="1" as="geometry" />
        </mxCell>
        <mxCell id="qq-jrD-yqYWrXCZJZRmo-59" value="" style="sketch=0;points=[[0.015,0.015,0],[0.985,0.015,0],[0.985,0.985,0],[0.015,0.985,0],[0.25,0,0],[0.5,0,0],[0.75,0,0],[1,0.25,0],[1,0.5,0],[1,0.75,0],[0.75,1,0],[0.5,1,0],[0.25,1,0],[0,0.75,0],[0,0.5,0],[0,0.25,0]];verticalLabelPosition=bottom;html=1;verticalAlign=top;aspect=fixed;align=center;pointerEvents=1;shape=mxgraph.cisco19.rect;prIcon=l2_switch;fillColor=#FAFAFA;strokeColor=#005073;" vertex="1" parent="1">
          <mxGeometry x="1180" y="230" width="50" height="50" as="geometry" />
        </mxCell>
        <mxCell id="qq-jrD-yqYWrXCZJZRmo-60" style="rounded=0;orthogonalLoop=1;jettySize=auto;html=1;exitX=0.5;exitY=0;exitDx=0;exitDy=0;exitPerimeter=0;entryX=0.855;entryY=0.8555;entryDx=0;entryDy=0;entryPerimeter=0;endArrow=none;endFill=0;" edge="1" parent="1" source="qq-jrD-yqYWrXCZJZRmo-59" target="qq-jrD-yqYWrXCZJZRmo-54">
          <mxGeometry relative="1" as="geometry" />
        </mxCell>
        <mxCell id="qq-jrD-yqYWrXCZJZRmo-61" value="" style="shape=mxgraph.cisco.computers_and_peripherals.workstation;sketch=0;html=1;pointerEvents=1;dashed=0;fillColor=#036897;strokeColor=#ffffff;strokeWidth=2;verticalLabelPosition=bottom;verticalAlign=top;align=center;outlineConnect=0;" vertex="1" parent="1">
          <mxGeometry x="1090" y="440" width="83" height="62" as="geometry" />
        </mxCell>
        <mxCell id="qq-jrD-yqYWrXCZJZRmo-62" style="rounded=0;orthogonalLoop=1;jettySize=auto;html=1;exitX=0.5;exitY=0;exitDx=0;exitDy=0;exitPerimeter=0;entryX=0.25;entryY=1;entryDx=0;entryDy=0;entryPerimeter=0;endArrow=none;endFill=0;" edge="1" parent="1" source="qq-jrD-yqYWrXCZJZRmo-61" target="qq-jrD-yqYWrXCZJZRmo-59">
          <mxGeometry relative="1" as="geometry" />
        </mxCell>
        <mxCell id="qq-jrD-yqYWrXCZJZRmo-63" value="" style="shape=mxgraph.cisco.computers_and_peripherals.workstation;sketch=0;html=1;pointerEvents=1;dashed=0;fillColor=#036897;strokeColor=#ffffff;strokeWidth=2;verticalLabelPosition=bottom;verticalAlign=top;align=center;outlineConnect=0;" vertex="1" parent="1">
          <mxGeometry x="1270" y="440" width="83" height="62" as="geometry" />
        </mxCell>
        <mxCell id="qq-jrD-yqYWrXCZJZRmo-64" style="rounded=0;orthogonalLoop=1;jettySize=auto;html=1;exitX=0.5;exitY=0;exitDx=0;exitDy=0;exitPerimeter=0;entryX=0.75;entryY=1;entryDx=0;entryDy=0;entryPerimeter=0;endArrow=none;endFill=0;" edge="1" parent="1" source="qq-jrD-yqYWrXCZJZRmo-63" target="qq-jrD-yqYWrXCZJZRmo-59">
          <mxGeometry relative="1" as="geometry" />
        </mxCell>
        <mxCell id="qq-jrD-yqYWrXCZJZRmo-65" value="" style="sketch=0;points=[[0.5,0,0],[1,0.5,0],[0.5,1,0],[0,0.5,0],[0.145,0.145,0],[0.8555,0.145,0],[0.855,0.8555,0],[0.145,0.855,0]];verticalLabelPosition=bottom;html=1;verticalAlign=top;aspect=fixed;align=center;pointerEvents=1;shape=mxgraph.cisco19.rect;prIcon=router;fillColor=#FAFAFA;strokeColor=#005073;" vertex="1" parent="1">
          <mxGeometry x="460" y="450" width="50" height="50" as="geometry" />
        </mxCell>
        <mxCell id="qq-jrD-yqYWrXCZJZRmo-66" style="rounded=0;orthogonalLoop=1;jettySize=auto;html=1;exitX=0.145;exitY=0.145;exitDx=0;exitDy=0;exitPerimeter=0;entryX=0.523;entryY=0.95;entryDx=0;entryDy=0;entryPerimeter=0;endArrow=none;endFill=0;" edge="1" parent="1" source="qq-jrD-yqYWrXCZJZRmo-65" target="qq-jrD-yqYWrXCZJZRmo-45">
          <mxGeometry relative="1" as="geometry" />
        </mxCell>
        <mxCell id="qq-jrD-yqYWrXCZJZRmo-67" style="rounded=0;orthogonalLoop=1;jettySize=auto;html=1;exitX=0.8555;exitY=0.145;exitDx=0;exitDy=0;exitPerimeter=0;entryX=0.5;entryY=1;entryDx=0;entryDy=0;entryPerimeter=0;endArrow=none;endFill=0;" edge="1" parent="1" source="qq-jrD-yqYWrXCZJZRmo-65" target="qq-jrD-yqYWrXCZJZRmo-46">
          <mxGeometry relative="1" as="geometry" />
        </mxCell>
        <mxCell id="qq-jrD-yqYWrXCZJZRmo-70" style="rounded=0;orthogonalLoop=1;jettySize=auto;html=1;exitX=0.5;exitY=0;exitDx=0;exitDy=0;exitPerimeter=0;entryX=0.145;entryY=0.855;entryDx=0;entryDy=0;entryPerimeter=0;endArrow=none;endFill=0;" edge="1" parent="1" source="qq-jrD-yqYWrXCZJZRmo-78" target="qq-jrD-yqYWrXCZJZRmo-65">
          <mxGeometry relative="1" as="geometry">
            <mxPoint x="355" y="440" as="sourcePoint" />
          </mxGeometry>
        </mxCell>
        <mxCell id="qq-jrD-yqYWrXCZJZRmo-71" style="rounded=0;orthogonalLoop=1;jettySize=auto;html=1;exitX=0.5;exitY=0;exitDx=0;exitDy=0;exitPerimeter=0;entryX=0.855;entryY=0.8555;entryDx=0;entryDy=0;entryPerimeter=0;endArrow=none;endFill=0;" edge="1" parent="1" source="qq-jrD-yqYWrXCZJZRmo-79" target="qq-jrD-yqYWrXCZJZRmo-65">
          <mxGeometry relative="1" as="geometry">
            <mxPoint x="607.2499999999995" y="437.25" as="sourcePoint" />
          </mxGeometry>
        </mxCell>
        <mxCell id="qq-jrD-yqYWrXCZJZRmo-72" value="" style="sketch=0;points=[[0.015,0.015,0],[0.985,0.015,0],[0.985,0.985,0],[0.015,0.985,0],[0.25,0,0],[0.5,0,0],[0.75,0,0],[1,0.25,0],[1,0.5,0],[1,0.75,0],[0.75,1,0],[0.5,1,0],[0.25,1,0],[0,0.75,0],[0,0.5,0],[0,0.25,0]];verticalLabelPosition=bottom;html=1;verticalAlign=top;aspect=fixed;align=center;pointerEvents=1;shape=mxgraph.cisco19.rect;prIcon=l2_switch;fillColor=#FAFAFA;strokeColor=#005073;" vertex="1" parent="1">
          <mxGeometry x="326.5" y="790" width="50" height="50" as="geometry" />
        </mxCell>
        <mxCell id="qq-jrD-yqYWrXCZJZRmo-73" value="" style="sketch=0;points=[[0.015,0.015,0],[0.985,0.015,0],[0.985,0.985,0],[0.015,0.985,0],[0.25,0,0],[0.5,0,0],[0.75,0,0],[1,0.25,0],[1,0.5,0],[1,0.75,0],[0.75,1,0],[0.5,1,0],[0.25,1,0],[0,0.75,0],[0,0.5,0],[0,0.25,0]];verticalLabelPosition=bottom;html=1;verticalAlign=top;aspect=fixed;align=center;pointerEvents=1;shape=mxgraph.cisco19.rect;prIcon=l2_switch;fillColor=#FAFAFA;strokeColor=#005073;" vertex="1" parent="1">
          <mxGeometry x="596.5" y="790" width="50" height="50" as="geometry" />
        </mxCell>
        <mxCell id="qq-jrD-yqYWrXCZJZRmo-74" value="" style="shape=mxgraph.cisco.computers_and_peripherals.workstation;sketch=0;html=1;pointerEvents=1;dashed=0;fillColor=#036897;strokeColor=#ffffff;strokeWidth=2;verticalLabelPosition=bottom;verticalAlign=top;align=center;outlineConnect=0;" vertex="1" parent="1">
          <mxGeometry x="310" y="960" width="83" height="62" as="geometry" />
        </mxCell>
        <mxCell id="qq-jrD-yqYWrXCZJZRmo-75" style="rounded=0;orthogonalLoop=1;jettySize=auto;html=1;exitX=0.5;exitY=0;exitDx=0;exitDy=0;exitPerimeter=0;entryX=0.5;entryY=1;entryDx=0;entryDy=0;entryPerimeter=0;endArrow=none;endFill=0;" edge="1" parent="1" source="qq-jrD-yqYWrXCZJZRmo-74" target="qq-jrD-yqYWrXCZJZRmo-72">
          <mxGeometry relative="1" as="geometry" />
        </mxCell>
        <mxCell id="qq-jrD-yqYWrXCZJZRmo-76" value="" style="shape=mxgraph.cisco.computers_and_peripherals.workstation;sketch=0;html=1;pointerEvents=1;dashed=0;fillColor=#036897;strokeColor=#ffffff;strokeWidth=2;verticalLabelPosition=bottom;verticalAlign=top;align=center;outlineConnect=0;" vertex="1" parent="1">
          <mxGeometry x="580" y="950" width="83" height="62" as="geometry" />
        </mxCell>
        <mxCell id="qq-jrD-yqYWrXCZJZRmo-77" style="edgeStyle=orthogonalEdgeStyle;rounded=0;orthogonalLoop=1;jettySize=auto;html=1;exitX=0.5;exitY=0;exitDx=0;exitDy=0;exitPerimeter=0;entryX=0.5;entryY=1;entryDx=0;entryDy=0;entryPerimeter=0;endArrow=none;endFill=0;" edge="1" parent="1" source="qq-jrD-yqYWrXCZJZRmo-76" target="qq-jrD-yqYWrXCZJZRmo-73">
          <mxGeometry relative="1" as="geometry" />
        </mxCell>
        <mxCell id="qq-jrD-yqYWrXCZJZRmo-78" value="" style="sketch=0;points=[[0.5,0,0],[1,0.5,0],[0.5,1,0],[0,0.5,0],[0.145,0.145,0],[0.8555,0.145,0],[0.855,0.8555,0],[0.145,0.855,0]];verticalLabelPosition=bottom;html=1;verticalAlign=top;aspect=fixed;align=center;pointerEvents=1;shape=mxgraph.cisco19.rect;prIcon=router;fillColor=#FAFAFA;strokeColor=#005073;" vertex="1" parent="1">
          <mxGeometry x="326.5" y="620" width="50" height="50" as="geometry" />
        </mxCell>
        <mxCell id="qq-jrD-yqYWrXCZJZRmo-79" value="" style="sketch=0;points=[[0.5,0,0],[1,0.5,0],[0.5,1,0],[0,0.5,0],[0.145,0.145,0],[0.8555,0.145,0],[0.855,0.8555,0],[0.145,0.855,0]];verticalLabelPosition=bottom;html=1;verticalAlign=top;aspect=fixed;align=center;pointerEvents=1;shape=mxgraph.cisco19.rect;prIcon=router;fillColor=#FAFAFA;strokeColor=#005073;" vertex="1" parent="1">
          <mxGeometry x="596.5" y="620" width="50" height="50" as="geometry" />
        </mxCell>
        <mxCell id="qq-jrD-yqYWrXCZJZRmo-80" style="edgeStyle=orthogonalEdgeStyle;rounded=0;orthogonalLoop=1;jettySize=auto;html=1;exitX=1;exitY=0.25;exitDx=0;exitDy=0;exitPerimeter=0;entryX=0;entryY=0.25;entryDx=0;entryDy=0;entryPerimeter=0;endArrow=none;endFill=0;" edge="1" parent="1" source="qq-jrD-yqYWrXCZJZRmo-72" target="qq-jrD-yqYWrXCZJZRmo-73">
          <mxGeometry relative="1" as="geometry" />
        </mxCell>
        <mxCell id="qq-jrD-yqYWrXCZJZRmo-81" style="edgeStyle=orthogonalEdgeStyle;rounded=0;orthogonalLoop=1;jettySize=auto;html=1;exitX=1;exitY=0.75;exitDx=0;exitDy=0;exitPerimeter=0;entryX=0;entryY=0.75;entryDx=0;entryDy=0;entryPerimeter=0;endArrow=none;endFill=0;" edge="1" parent="1" source="qq-jrD-yqYWrXCZJZRmo-72" target="qq-jrD-yqYWrXCZJZRmo-73">
          <mxGeometry relative="1" as="geometry" />
        </mxCell>
        <mxCell id="qq-jrD-yqYWrXCZJZRmo-82" style="rounded=0;orthogonalLoop=1;jettySize=auto;html=1;exitX=0.5;exitY=0;exitDx=0;exitDy=0;exitPerimeter=0;entryX=0.5;entryY=1;entryDx=0;entryDy=0;entryPerimeter=0;endArrow=none;endFill=0;" edge="1" parent="1" source="qq-jrD-yqYWrXCZJZRmo-72" target="qq-jrD-yqYWrXCZJZRmo-78">
          <mxGeometry relative="1" as="geometry" />
        </mxCell>
        <mxCell id="qq-jrD-yqYWrXCZJZRmo-85" style="rounded=0;orthogonalLoop=1;jettySize=auto;html=1;exitX=0.5;exitY=0;exitDx=0;exitDy=0;exitPerimeter=0;entryX=0.5;entryY=1;entryDx=0;entryDy=0;entryPerimeter=0;endArrow=none;endFill=0;" edge="1" parent="1" source="qq-jrD-yqYWrXCZJZRmo-73" target="qq-jrD-yqYWrXCZJZRmo-79">
          <mxGeometry relative="1" as="geometry" />
        </mxCell>
        <mxCell id="qq-jrD-yqYWrXCZJZRmo-86" value="" style="sketch=0;points=[[0.5,0,0],[1,0.5,0],[0.5,1,0],[0,0.5,0],[0.145,0.145,0],[0.8555,0.145,0],[0.855,0.8555,0],[0.145,0.855,0]];verticalLabelPosition=bottom;html=1;verticalAlign=top;aspect=fixed;align=center;pointerEvents=1;shape=mxgraph.cisco19.rect;prIcon=router;fillColor=#FAFAFA;strokeColor=#005073;" vertex="1" parent="1">
          <mxGeometry x="770" y="710" width="50" height="50" as="geometry" />
        </mxCell>
        <mxCell id="qq-jrD-yqYWrXCZJZRmo-87" style="rounded=0;orthogonalLoop=1;jettySize=auto;html=1;exitX=1;exitY=0.5;exitDx=0;exitDy=0;exitPerimeter=0;entryX=0.145;entryY=0.145;entryDx=0;entryDy=0;entryPerimeter=0;endArrow=none;endFill=0;" edge="1" parent="1" source="qq-jrD-yqYWrXCZJZRmo-79" target="qq-jrD-yqYWrXCZJZRmo-86">
          <mxGeometry relative="1" as="geometry" />
        </mxCell>
        <mxCell id="qq-jrD-yqYWrXCZJZRmo-88" style="rounded=0;orthogonalLoop=1;jettySize=auto;html=1;exitX=0.985;exitY=0.015;exitDx=0;exitDy=0;exitPerimeter=0;entryX=0.145;entryY=0.855;entryDx=0;entryDy=0;entryPerimeter=0;endArrow=none;endFill=0;" edge="1" parent="1" source="qq-jrD-yqYWrXCZJZRmo-72" target="qq-jrD-yqYWrXCZJZRmo-79">
          <mxGeometry relative="1" as="geometry" />
        </mxCell>
        <mxCell id="qq-jrD-yqYWrXCZJZRmo-89" style="rounded=0;orthogonalLoop=1;jettySize=auto;html=1;exitX=0.015;exitY=0.015;exitDx=0;exitDy=0;exitPerimeter=0;entryX=0.855;entryY=0.8555;entryDx=0;entryDy=0;entryPerimeter=0;endArrow=none;endFill=0;" edge="1" parent="1" source="qq-jrD-yqYWrXCZJZRmo-73" target="qq-jrD-yqYWrXCZJZRmo-78">
          <mxGeometry relative="1" as="geometry" />
        </mxCell>
        <mxCell id="qq-jrD-yqYWrXCZJZRmo-90" value="R19" style="text;html=1;align=center;verticalAlign=middle;whiteSpace=wrap;rounded=0;" vertex="1" parent="1">
          <mxGeometry x="-720" y="420" width="60" height="30" as="geometry" />
        </mxCell>
        <mxCell id="qq-jrD-yqYWrXCZJZRmo-91" value="R12" style="text;html=1;align=center;verticalAlign=middle;whiteSpace=wrap;rounded=0;" vertex="1" parent="1">
          <mxGeometry x="-540" y="420" width="60" height="30" as="geometry" />
        </mxCell>
        <mxCell id="qq-jrD-yqYWrXCZJZRmo-92" value="R13" style="text;html=1;align=center;verticalAlign=middle;whiteSpace=wrap;rounded=0;" vertex="1" parent="1">
          <mxGeometry x="-190" y="420" width="60" height="30" as="geometry" />
        </mxCell>
        <mxCell id="qq-jrD-yqYWrXCZJZRmo-93" value="R20" style="text;html=1;align=center;verticalAlign=middle;whiteSpace=wrap;rounded=0;" vertex="1" parent="1">
          <mxGeometry x="60" y="420" width="60" height="30" as="geometry" />
        </mxCell>
        <mxCell id="qq-jrD-yqYWrXCZJZRmo-94" value="R14" style="text;html=1;align=center;verticalAlign=middle;whiteSpace=wrap;rounded=0;" vertex="1" parent="1">
          <mxGeometry x="-560" y="210" width="60" height="30" as="geometry" />
        </mxCell>
        <mxCell id="qq-jrD-yqYWrXCZJZRmo-95" value="R15" style="text;html=1;align=center;verticalAlign=middle;whiteSpace=wrap;rounded=0;" vertex="1" parent="1">
          <mxGeometry x="-260" y="210" width="60" height="30" as="geometry" />
        </mxCell>
        <mxCell id="qq-jrD-yqYWrXCZJZRmo-96" value="SW4" style="text;html=1;align=center;verticalAlign=middle;whiteSpace=wrap;rounded=0;" vertex="1" parent="1">
          <mxGeometry x="-540" y="585" width="60" height="30" as="geometry" />
        </mxCell>
        <mxCell id="qq-jrD-yqYWrXCZJZRmo-97" value="SW5" style="text;html=1;align=center;verticalAlign=middle;whiteSpace=wrap;rounded=0;" vertex="1" parent="1">
          <mxGeometry x="-180" y="585" width="60" height="30" as="geometry" />
        </mxCell>
        <mxCell id="qq-jrD-yqYWrXCZJZRmo-98" value="SW2" style="text;html=1;align=center;verticalAlign=middle;whiteSpace=wrap;rounded=0;" vertex="1" parent="1">
          <mxGeometry x="-180" y="750" width="60" height="30" as="geometry" />
        </mxCell>
        <mxCell id="qq-jrD-yqYWrXCZJZRmo-99" value="SW5" style="text;html=1;align=center;verticalAlign=middle;whiteSpace=wrap;rounded=0;" vertex="1" parent="1">
          <mxGeometry x="-540" y="750" width="60" height="30" as="geometry" />
        </mxCell>
        <mxCell id="qq-jrD-yqYWrXCZJZRmo-100" value="VPC1" style="text;html=1;align=center;verticalAlign=middle;whiteSpace=wrap;rounded=0;" vertex="1" parent="1">
          <mxGeometry x="-506.5" y="1030" width="60" height="30" as="geometry" />
        </mxCell>
        <mxCell id="qq-jrD-yqYWrXCZJZRmo-101" value="VPC2" style="text;html=1;align=center;verticalAlign=middle;whiteSpace=wrap;rounded=0;" vertex="1" parent="1">
          <mxGeometry x="-230" y="1030" width="60" height="30" as="geometry" />
        </mxCell>
        <mxCell id="qq-jrD-yqYWrXCZJZRmo-112" value="R22" style="text;html=1;align=center;verticalAlign=middle;whiteSpace=wrap;rounded=0;" vertex="1" parent="1">
          <mxGeometry x="-300" y="-200" width="60" height="30" as="geometry" />
        </mxCell>
        <mxCell id="qq-jrD-yqYWrXCZJZRmo-113" value="R21" style="text;html=1;align=center;verticalAlign=middle;whiteSpace=wrap;rounded=0;" vertex="1" parent="1">
          <mxGeometry x="30" y="-30" width="60" height="30" as="geometry" />
        </mxCell>
        <mxCell id="qq-jrD-yqYWrXCZJZRmo-114" value="R23" style="text;html=1;align=center;verticalAlign=middle;whiteSpace=wrap;rounded=0;" vertex="1" parent="1">
          <mxGeometry x="295" y="-190" width="60" height="30" as="geometry" />
        </mxCell>
        <mxCell id="qq-jrD-yqYWrXCZJZRmo-115" value="R25" style="text;html=1;align=center;verticalAlign=middle;whiteSpace=wrap;rounded=0;" vertex="1" parent="1">
          <mxGeometry x="591.5" y="-190" width="60" height="30" as="geometry" />
        </mxCell>
        <mxCell id="qq-jrD-yqYWrXCZJZRmo-116" value="R24" style="text;html=1;align=center;verticalAlign=middle;whiteSpace=wrap;rounded=0;" vertex="1" parent="1">
          <mxGeometry x="321.5" y="-10" width="60" height="30" as="geometry" />
        </mxCell>
        <mxCell id="qq-jrD-yqYWrXCZJZRmo-117" value="R26" style="text;html=1;align=center;verticalAlign=middle;whiteSpace=wrap;rounded=0;" vertex="1" parent="1">
          <mxGeometry x="550" y="-10" width="60" height="30" as="geometry" />
        </mxCell>
        <mxCell id="qq-jrD-yqYWrXCZJZRmo-118" value="R14" style="text;html=1;align=center;verticalAlign=middle;whiteSpace=wrap;rounded=0;" vertex="1" parent="1">
          <mxGeometry x="780" y="-610" width="60" height="30" as="geometry" />
        </mxCell>
      </root>
    </mxGraphModel>
  </diagram>
</mxfile>
